<svg xmlns="http://www.w3.org/2000/svg" width="1600" height="1000" viewBox="0 0 1600 1000"><defs>
  <linearGradient id="sky" x1="0" y1="0" x2="0" y2="1">
    <stop offset="0" stop-color="#0A142F"/><stop offset="0.55" stop-color="#1A2238"/><stop offset="1" stop-color="#3D2E4F"/>
  </linearGradient>
  <radialGradient id="glow" cx="0.5" cy="0.5" r="0.5">
    <stop offset="0" stop-color="#E5C76B" stop-opacity="0.9"/><stop offset="0.4" stop-color="#E5C76B" stop-opacity="0.35"/><stop offset="1" stop-color="#E5C76B" stop-opacity="0"/>
  </radialGradient>
  <linearGradient id="water" x1="0" y1="0" x2="0" y2="1">
    <stop offset="0" stop-color="#3D2E4F" stop-opacity="0.75"/><stop offset="1" stop-color="#060D22"/>
  </linearGradient>
  </defs><rect width="1600" height="1000" fill="url(#sky)"/><circle cx="539.1214767470956" cy="353.49734719842667" r="366.1175300180912" fill="url(#glow)"/><circle cx="539.1214767470956" cy="353.49734719842667" r="81.35945111513138" fill="#E5C76B" opacity="0.95"/><g fill="#111827" opacity="0.55"><rect x="-20" y="518" width="90" height="102"/><rect x="97" y="482" width="76" height="138"/><rect x="189" y="493" width="123" height="127"/><rect x="320" y="500" width="96" height="120"/><rect x="437" y="492" width="98" height="128"/><rect x="550" y="526" width="69" height="94"/><rect x="624" y="535" width="101" height="85"/><rect x="752" y="548" width="180" height="72"/><rect x="953" y="556" width="84" height="64"/><rect x="1042" y="565" width="176" height="55"/><rect x="1240" y="515" width="89" height="105"/><rect x="1333" y="525" width="167" height="95"/><rect x="1513" y="513" width="180" height="107"/></g><rect x="79" y="398" width="383" height="222" fill="#232D4A"/><rect x="223" y="424" width="64" height="30" fill="#E5C76B" opacity="0.46"/><rect x="320" y="424" width="64" height="30" fill="#E5C76B" opacity="0.36"/><rect x="586" y="431" width="476" height="189" fill="#111827"/><rect x="643" y="482" width="60" height="15" fill="#E5C76B" opacity="0.58"/><rect x="643" y="540" width="60" height="15" fill="#E5C76B" opacity="0.70"/><rect x="643" y="569" width="60" height="15" fill="#E5C76B" opacity="0.60"/><rect x="733" y="540" width="60" height="15" fill="#E5C76B" opacity="0.54"/><rect x="824" y="454" width="60" height="15" fill="#E5C76B" opacity="0.62"/><rect x="824" y="511" width="60" height="15" fill="#E5C76B" opacity="0.78"/><rect x="824" y="540" width="60" height="15" fill="#E5C76B" opacity="0.80"/><rect x="824" y="569" width="60" height="15" fill="#E5C76B" opacity="0.57"/><rect x="915" y="569" width="60" height="15" fill="#E5C76B" opacity="0.66"/><rect x="1107" y="200" width="263" height="420" fill="#111827"/><rect x="1139" y="250" width="26" height="34" fill="#E5C76B" opacity="0.83"/><rect x="1139" y="442" width="26" height="34" fill="#E5C76B" opacity="0.68"/><rect x="1139" y="506" width="26" height="34" fill="#E5C76B" opacity="0.50"/><rect x="1179" y="378" width="26" height="34" fill="#E5C76B" opacity="0.63"/><rect x="1179" y="506" width="26" height="34" fill="#E5C76B" opacity="0.88"/><rect x="1219" y="250" width="26" height="34" fill="#D4AF37" opacity="0.90"/><rect x="1219" y="442" width="26" height="34" fill="#D4AF37" opacity="0.57"/><rect x="1259" y="442" width="26" height="34" fill="#E5C76B" opacity="0.81"/><rect x="1299" y="506" width="26" height="34" fill="#E5C76B" opacity="0.48"/><rect x="0" y="620" width="1600" height="380" fill="url(#water)"/><ellipse cx="539.1214767470956" cy="734" rx="195.2626826763153" ry="40.67972555756569" fill="#E5C76B" opacity="0.22"/><rect x="929" y="769" width="76" height="2" fill="#D9D9D9" opacity="0.09"/><rect x="663" y="923" width="89" height="2" fill="#D9D9D9" opacity="0.20"/><rect x="362" y="758" width="55" height="2" fill="#D9D9D9" opacity="0.16"/><rect x="353" y="819" width="99" height="2" fill="#E5C76B" opacity="0.16"/><rect x="1142" y="777" width="118" height="2" fill="#D9D9D9" opacity="0.11"/><rect x="1115" y="726" width="168" height="2" fill="#D9D9D9" opacity="0.19"/><rect x="217" y="938" width="100" height="2" fill="#D9D9D9" opacity="0.18"/><rect x="15" y="649" width="100" height="2" fill="#D9D9D9" opacity="0.18"/><rect x="1321" y="642" width="167" height="2" fill="#D9D9D9" opacity="0.06"/><rect x="811" y="858" width="167" height="2" fill="#E5C76B" opacity="0.22"/><rect x="422" y="878" width="128" height="2" fill="#E5C76B" opacity="0.15"/><rect x="604" y="782" width="61" height="2" fill="#E5C76B" opacity="0.15"/><rect x="395" y="686" width="112" height="2" fill="#E5C76B" opacity="0.11"/><rect x="1413" y="910" width="158" height="2" fill="#D9D9D9" opacity="0.22"/><rect width="1600" height="1000" fill="#060D22" opacity="0.08"/></svg>