<svg xmlns="http://www.w3.org/2000/svg" width="1600" height="1000" viewBox="0 0 1600 1000"><defs>
  <linearGradient id="sky" x1="0" y1="0" x2="0" y2="1">
    <stop offset="0" stop-color="#081228"/><stop offset="0.55" stop-color="#16264A"/><stop offset="1" stop-color="#31456F"/>
  </linearGradient>
  <radialGradient id="glow" cx="0.5" cy="0.5" r="0.5">
    <stop offset="0" stop-color="#F0D890" stop-opacity="0.9"/><stop offset="0.4" stop-color="#F0D890" stop-opacity="0.35"/><stop offset="1" stop-color="#F0D890" stop-opacity="0"/>
  </radialGradient>
  <linearGradient id="water" x1="0" y1="0" x2="0" y2="1">
    <stop offset="0" stop-color="#31456F" stop-opacity="0.75"/><stop offset="1" stop-color="#060D22"/>
  </linearGradient>
  </defs><rect width="1600" height="1000" fill="url(#sky)"/><circle cx="1094.9500638991594" cy="380.05092876031995" r="460.3002255130559" fill="url(#glow)"/><circle cx="1094.9500638991594" cy="380.05092876031995" r="102.28893900290132" fill="#F0D890" opacity="0.95"/><g fill="#111827" opacity="0.55"><rect x="-20" y="576" width="73" height="44"/><rect x="60" y="529" width="99" height="91"/><rect x="161" y="500" width="190" height="120"/><rect x="357" y="499" width="188" height="121"/><rect x="565" y="499" width="147" height="121"/><rect x="732" y="527" width="129" height="93"/><rect x="881" y="589" width="102" height="31"/><rect x="985" y="551" width="131" height="69"/><rect x="1120" y="506" width="60" height="114"/><rect x="1184" y="505" width="153" height="115"/><rect x="1348" y="582" width="134" height="38"/><rect x="1511" y="532" width="187" height="88"/></g><rect x="-6" y="255" width="492" height="365" fill="#1A2238"/><rect x="53" y="437" width="82" height="73" fill="#E5C76B" opacity="0.38"/><rect x="302" y="437" width="82" height="73" fill="#E5C76B" opacity="0.45"/><rect x="486" y="236" width="533" height="384" fill="#232D4A"/><rect x="422" y="344" width="661" height="23" fill="#060D22"/><rect x="550" y="282" width="133" height="38" fill="#E5C76B" opacity="0.55"/><rect x="550" y="355" width="133" height="38" fill="#E5C76B" opacity="0.84"/><rect x="753" y="355" width="133" height="38" fill="#D4AF37" opacity="0.38"/><rect x="822" y="146" width="575" height="474" fill="#2A3552"/><rect x="891" y="473" width="57" height="47" fill="#E5C76B" opacity="0.65"/><rect x="979" y="203" width="57" height="47" fill="#E5C76B" opacity="0.91"/><rect x="1066" y="203" width="57" height="47" fill="#D4AF37" opacity="0.59"/><rect x="1153" y="293" width="57" height="47" fill="#E5C76B" opacity="0.88"/><rect x="1153" y="473" width="57" height="47" fill="#E5C76B" opacity="0.47"/><rect x="1241" y="473" width="57" height="47" fill="#E5C76B" opacity="0.69"/><rect x="1269" y="299" width="281" height="321" fill="#111827"/><rect x="1303" y="419" width="35" height="43" fill="#E5C76B" opacity="0.71"/><rect x="1356" y="419" width="35" height="43" fill="#D4AF37" opacity="0.42"/><rect x="1356" y="500" width="35" height="43" fill="#E5C76B" opacity="0.89"/><rect x="1409" y="419" width="35" height="43" fill="#E5C76B" opacity="0.50"/><rect x="1409" y="500" width="35" height="43" fill="#E5C76B" opacity="0.80"/><rect x="1463" y="337" width="35" height="43" fill="#E5C76B" opacity="0.45"/><rect x="1463" y="500" width="35" height="43" fill="#E5C76B" opacity="0.95"/><rect x="0" y="620" width="1600" height="380" fill="url(#water)"/><ellipse cx="1094.9500638991594" cy="734" rx="245.49345360696316" ry="51.14446950145066" fill="#F0D890" opacity="0.22"/><rect x="248" y="845" width="99" height="2" fill="#D9D9D9" opacity="0.12"/><rect x="1187" y="682" width="104" height="2" fill="#E5C76B" opacity="0.08"/><rect x="446" y="720" width="30" height="2" fill="#D9D9D9" opacity="0.09"/><rect x="644" y="716" width="42" height="2" fill="#E5C76B" opacity="0.09"/><rect x="740" y="858" width="183" height="2" fill="#E5C76B" opacity="0.15"/><rect x="587" y="873" width="77" height="2" fill="#D9D9D9" opacity="0.13"/><rect x="223" y="792" width="66" height="2" fill="#D9D9D9" opacity="0.14"/><rect x="534" y="816" width="154" height="2" fill="#D9D9D9" opacity="0.09"/><rect x="1587" y="838" width="127" height="2" fill="#D9D9D9" opacity="0.17"/><rect x="801" y="917" width="47" height="2" fill="#E5C76B" opacity="0.09"/><rect x="1177" y="778" width="137" height="2" fill="#E5C76B" opacity="0.15"/><rect x="1091" y="892" width="118" height="2" fill="#E5C76B" opacity="0.15"/><rect x="258" y="905" width="89" height="2" fill="#D9D9D9" opacity="0.11"/><rect x="1425" y="640" width="116" height="2" fill="#E5C76B" opacity="0.21"/><rect width="1600" height="1000" fill="#060D22" opacity="0.08"/></svg>