<svg xmlns="http://www.w3.org/2000/svg" width="1600" height="1000" viewBox="0 0 1600 1000"><defs>
  <linearGradient id="room" x1="0" y1="0" x2="0" y2="1">
    <stop offset="0" stop-color="#111827"/><stop offset="1" stop-color="#060D22"/>
  </linearGradient>
  <linearGradient id="view" x1="0" y1="0" x2="0" y2="1">
    <stop offset="0" stop-color="#060D22"/><stop offset="0.7" stop-color="#2B3A63"/><stop offset="1" stop-color="#060D22"/>
  </linearGradient>
  <linearGradient id="floor" x1="0" y1="0" x2="1" y2="0">
    <stop offset="0" stop-color="#1A2238"/><stop offset="0.5" stop-color="#2A3049"/><stop offset="1" stop-color="#1A2238"/>
  </linearGradient>
  </defs><rect width="1600" height="1000" fill="url(#room)"/><rect x="192" y="100" width="1216" height="620" fill="url(#view)"/><rect x="192" y="679" width="48" height="41" fill="#111827" opacity="0.8"/><rect x="242" y="459" width="61" height="261" fill="#111827" opacity="0.8"/><rect x="322" y="634" width="82" height="86" fill="#111827" opacity="0.8"/><rect x="408" y="506" width="105" height="214" fill="#111827" opacity="0.8"/><rect x="525" y="657" width="108" height="63" fill="#111827" opacity="0.8"/><rect x="642" y="604" width="102" height="116" fill="#111827" opacity="0.8"/><rect x="749" y="606" width="107" height="114" fill="#111827" opacity="0.8"/><rect x="862" y="460" width="127" height="260" fill="#111827" opacity="0.8"/><rect x="1000" y="599" width="46" height="121" fill="#111827" opacity="0.8"/><rect x="1047" y="553" width="133" height="167" fill="#111827" opacity="0.8"/><rect x="1192" y="557" width="142" height="163" fill="#111827" opacity="0.8"/><rect x="1359" y="656" width="79" height="64" fill="#111827" opacity="0.8"/><circle cx="973" cy="317" r="56" fill="#D4AF37" opacity="0.9"/><rect x="395" y="100" width="6" height="620" fill="#060D22"/><rect x="597" y="100" width="6" height="620" fill="#060D22"/><rect x="800" y="100" width="6" height="620" fill="#060D22"/><rect x="1003" y="100" width="6" height="620" fill="#060D22"/><rect x="1205" y="100" width="6" height="620" fill="#060D22"/><rect x="192" y="100" width="1216" height="620" fill="none" stroke="#060D22" stroke-width="14"/><rect x="0" y="720" width="1600" height="280" fill="url(#floor)"/><polygon points="192,1000 1408,1000 1189.12,720 410.88,720" fill="#D4AF37" opacity="0.08"/><rect x="320" y="780" width="448.00000000000006" height="50" rx="10" fill="#060D22"/><rect x="352" y="700" width="384" height="90" rx="14" fill="#0D1530"/><circle cx="1152" cy="620" r="14" fill="#E5C76B"/><rect x="1147.2" y="620" width="4" height="200" fill="#060D22"/></svg>