<svg xmlns="http://www.w3.org/2000/svg" width="1600" height="1000" viewBox="0 0 1600 1000" preserveAspectRatio="xMidYMid slice"><defs>
    <linearGradient id="sky" x1="0" y1="0" x2="0" y2="1">
      <stop offset="0" stop-color="#050B1E"/>
      <stop offset="0.32" stop-color="#0A142F"/>
      <stop offset="0.62" stop-color="#1E2A4E"/>
      <stop offset="0.85" stop-color="#4A3B5C"/>
      <stop offset="1" stop-color="#E8945C" stop-opacity="0.55"/>
    </linearGradient>
    <radialGradient id="sunGlow" cx="0.76" cy="0.5" r="0.6">
      <stop offset="0" stop-color="#F0C36B" stop-opacity="0.95"/>
      <stop offset="0.18" stop-color="#F0C36B" stop-opacity="0.5"/>
      <stop offset="0.45" stop-color="#E8945C" stop-opacity="0.18"/>
      <stop offset="1" stop-color="#E8945C" stop-opacity="0"/>
    </radialGradient>
    <radialGradient id="sunCore" cx="0.5" cy="0.5" r="0.5">
      <stop offset="0" stop-color="#FFFDF5"/>
      <stop offset="0.35" stop-color="#F0C36B"/>
      <stop offset="1" stop-color="#E8945C" stop-opacity="0"/>
    </radialGradient>
    <linearGradient id="haze" x1="0" y1="0" x2="0" y2="1">
      <stop offset="0" stop-color="#E8945C" stop-opacity="0"/>
      <stop offset="1" stop-color="#F0C36B" stop-opacity="0.35"/>
    </linearGradient>
    <linearGradient id="water" x1="0" y1="0" x2="0" y2="1">
      <stop offset="0" stop-color="#4A3B5C" stop-opacity="0.85"/>
      <stop offset="0.4" stop-color="#1E2A4E" stop-opacity="0.6"/>
      <stop offset="1" stop-color="#04091A"/>
    </linearGradient>
    <radialGradient id="vignette" cx="0.5" cy="0.42" r="0.75">
      <stop offset="0" stop-color="#000000" stop-opacity="0"/>
      <stop offset="0.7" stop-color="#000000" stop-opacity="0"/>
      <stop offset="1" stop-color="#04091A" stop-opacity="0.55"/>
    </radialGradient>
    <radialGradient id="winGlow" cx="0.5" cy="0.5" r="0.5">
      <stop offset="0" stop-color="#FFF0CE"/>
      <stop offset="0.5" stop-color="#F0C97A"/>
      <stop offset="1" stop-color="#8A5A1E"/>
    </radialGradient>
    <filter id="soft" x="-20%" y="-20%" width="140%" height="140%">
      <feGaussianBlur stdDeviation="6"/>
    </filter>
    <filter id="hazeBlur" x="-10%" y="-10%" width="120%" height="120%">
      <feGaussianBlur stdDeviation="3"/>
    </filter>
  </defs><rect width="1600" height="1000" fill="url(#sky)"/><rect width="1600" height="610.43" fill="url(#sunGlow)"/><g opacity="0.10"><polygon points="1215.21,502.08 801.21,0 861.21,0" fill="#F0C36B"/><polygon points="1215.21,502.08 929.21,0 989.21,0" fill="#F0C36B"/><polygon points="1215.21,502.08 1057.21,0 1117.21,0" fill="#F0C36B"/><polygon points="1215.21,502.08 1185.21,0 1245.21,0" fill="#F0C36B"/><polygon points="1215.21,502.08 1313.21,0 1373.21,0" fill="#F0C36B"/><polygon points="1215.21,502.08 1441.21,0 1501.21,0" fill="#F0C36B"/><polygon points="1215.21,502.08 1569.21,0 1629.21,0" fill="#F0C36B"/></g><g filter="url(#soft)" opacity="0.5"><ellipse cx="347.56" cy="200.85" rx="352.98" ry="63.54" fill="#1E2A4E" opacity="0.5"/><ellipse cx="1565.96" cy="247.76" rx="237.29" ry="42.71" fill="#E8945C" opacity="0.5"/><ellipse cx="453.92" cy="328.07" rx="332.66" ry="59.88" fill="#E8945C" opacity="0.5"/><ellipse cx="431.3" cy="126.26" rx="245.52" ry="44.19" fill="#1E2A4E" opacity="0.5"/><ellipse cx="936.94" cy="351.23" rx="195.95" ry="35.27" fill="#E8945C" opacity="0.5"/></g><circle cx="1215.21" cy="502.08" r="130" fill="url(#sunCore)"/><g opacity="0.5"><rect x="-20" y="474.3" width="112.44" height="140.13" fill="hsl(226.5517751974985, 25.140123466961086%, 13.370542239397764%)"/><rect x="95.45" y="555.62" width="104.82" height="58.82" fill="hsl(230.58065703324974, 20.095568508375436%, 17.449091197922826%)"/><rect x="214.08" y="531.07" width="82.96" height="83.37" fill="hsl(232.27883087843657, 25.012130541261286%, 12.601288052275777%)"/><rect x="304.19" y="468.85" width="42.73" height="145.59" fill="hsl(225.18030667025596, 19.672653877176344%, 14.443110927939415%)"/><rect x="357.57" y="461.54" width="96.93" height="152.89" fill="hsl(223.29184571933, 19.847001342102885%, 14.436261113733053%)"/><rect x="393.9" y="472.27" width="3" height="3" fill="#F0C36B" opacity="0.61"/><rect x="466.9" y="490.81" width="32.69" height="123.62" fill="hsl(229.96252472139895, 20.817217228002846%, 16.112422613427043%)"/><rect x="479.44" y="538.78" width="3" height="3" fill="#F0C36B" opacity="0.56"/><rect x="484.91" y="577.91" width="3" height="3" fill="#F0C36B" opacity="0.46"/><rect x="507.14" y="463.93" width="57.8" height="150.5" fill="hsl(233.3507810672745, 27.261600153986365%, 14.15473279543221%)"/><rect x="580.11" y="541.08" width="118.77" height="73.35" fill="hsl(227.46029152348638, 27.908696939237416%, 19.970083095133305%)"/><rect x="711.69" y="577.61" width="87.89" height="36.83" fill="hsl(230.91503068897873, 25.91223543928936%, 15.450117968022823%)"/><rect x="810.86" y="459.61" width="78.41" height="154.82" fill="hsl(232.05187439080328, 24.37990131508559%, 13.48333989828825%)"/><rect x="870.02" y="555.93" width="3" height="3" fill="#F0C36B" opacity="0.53"/><rect x="875.46" y="567.74" width="3" height="3" fill="#F0C36B" opacity="0.35"/><rect x="903.61" y="489.75" width="84.91" height="124.68" fill="hsl(229.36877346038818, 18.514249014668167%, 16.465656572952867%)"/><rect x="988.94" y="479.2" width="51.91" height="135.24" fill="hsl(233.40078740380704, 24.911616353318095%, 14.989884482696652%)"/><rect x="1053.36" y="551.99" width="71.8" height="62.45" fill="hsl(232.69099522568285, 22.103252363856882%, 12.165438635274768%)"/><rect x="1093.75" y="587.39" width="3" height="3" fill="#F0C36B" opacity="0.41"/><rect x="1073.38" y="596.96" width="3" height="3" fill="#F0C36B" opacity="0.68"/><rect x="1141.2" y="486.42" width="68.57" height="128.01" fill="hsl(231.33128914609551, 23.095286031719297%, 16.40719854645431%)"/><rect x="1159.38" y="572.59" width="3" height="3" fill="#F0C36B" opacity="0.49"/><rect x="1220.23" y="573.17" width="56.14" height="41.26" fill="hsl(224.52589419018477, 27.3703880533576%, 15.3126007206738%)"/><rect x="1276.64" y="529.99" width="109.26" height="84.45" fill="hsl(224.71310984250158, 19.567575444933027%, 15.966747103258967%)"/><rect x="1324.7" y="580.87" width="3" height="3" fill="#F0C36B" opacity="0.54"/><rect x="1352.05" y="573.35" width="3" height="3" fill="#F0C36B" opacity="0.37"/><rect x="1391.71" y="494.82" width="59.48" height="119.62" fill="hsl(232.36846784781665, 22.67819767538458%, 18.621931405737996%)"/><rect x="1418.35" y="517.91" width="3" height="3" fill="#F0C36B" opacity="0.61"/><rect x="1398.15" y="546.09" width="3" height="3" fill="#F0C36B" opacity="0.4"/><rect x="1452.44" y="474.18" width="104.31" height="140.25" fill="hsl(225.76570639852434, 18.157719326671213%, 17.90001511760056%)"/><rect x="1571.13" y="506.11" width="53.71" height="108.32" fill="hsl(232.4565464677289, 23.556888801511377%, 16.010420061647892%)"/><rect x="0" y="550.43" width="1600" height="64" fill="url(#haze)" opacity="0.6"/></g><linearGradient id="f10280" x1="0" y1="0" x2="1" y2="1">
      <stop offset="0" stop-color="#212B47"/>
      <stop offset="1" stop-color="#0F1526"/>
    </linearGradient><rect x="-48.38" y="344.73" width="475.35" height="271.7" fill="url(#f10280)"/><rect x="-48.38" y="344.73" width="3" height="265.7" fill="#E8945C" opacity="0.5"/><rect x="-48.38" y="455.73" width="475.35" height="7.97" fill="#04091A" opacity="0.6"/><rect x="-48.38" y="346.73" width="475.35" height="2" fill="#D4AF37" opacity="0.55"/><linearGradient id="f10281" x1="0" y1="0" x2="1" y2="1">
      <stop offset="0" stop-color="#212B47"/>
      <stop offset="1" stop-color="#0F1526"/>
    </linearGradient><rect x="394.52" y="341.12" width="504.12" height="275.32" fill="url(#f10281)"/><rect x="394.52" y="341.12" width="3" height="269.32" fill="#E8945C" opacity="0.5"/><rect x="394.52" y="343.12" width="504.12" height="2" fill="#D4AF37" opacity="0.55"/><linearGradient id="f10282" x1="0" y1="0" x2="1" y2="1">
      <stop offset="0" stop-color="#333F60"/>
      <stop offset="1" stop-color="#1A2138"/>
    </linearGradient><rect x="809.99" y="328.02" width="572.99" height="288.41" fill="url(#f10282)"/><rect x="809.99" y="328.02" width="3" height="282.41" fill="#E8945C" opacity="0.5"/><linearGradient id="f10283" x1="1" y1="0" x2="0" y2="1">
      <stop offset="0" stop-color="#333F60"/>
      <stop offset="1" stop-color="#1A2138"/>
    </linearGradient><rect x="1180.68" y="254.58" width="518.08" height="361.85" fill="url(#f10283)"/><rect x="1695.76" y="254.58" width="3" height="355.85" fill="#E8945C" opacity="0.5"/><rect x="1180.68" y="420.64" width="518.08" height="10.68" fill="#04091A" opacity="0.6"/><g filter="url(#soft)" opacity="0.5"><rect x="-3.85" y="362.99" width="55.44" height="21.94" fill="#F0C97A" opacity="0.49"/><rect x="-3.85" y="394.11" width="55.44" height="21.94" fill="#F0C97A" opacity="0.26"/><rect x="-3.85" y="487.49" width="55.44" height="21.94" fill="#F0C97A" opacity="0.16"/><rect x="-3.85" y="549.74" width="55.44" height="21.94" fill="#F0C97A" opacity="0.33"/><rect x="72.21" y="394.11" width="55.44" height="21.94" fill="#F0C97A" opacity="0.49"/><rect x="72.21" y="549.74" width="55.44" height="21.94" fill="#F0C97A" opacity="0.24"/><rect x="148.26" y="362.99" width="55.44" height="21.94" fill="#F0C97A" opacity="0.22"/><rect x="148.26" y="394.11" width="55.44" height="21.94" fill="#F0C97A" opacity="0.31"/><rect x="148.26" y="487.49" width="55.44" height="21.94" fill="#F0C97A" opacity="0.36"/><rect x="148.26" y="518.61" width="55.44" height="21.94" fill="#F0C97A" opacity="0.28"/><rect x="224.32" y="425.24" width="55.44" height="21.94" fill="#F0C97A" opacity="0.49"/><rect x="224.32" y="456.36" width="55.44" height="21.94" fill="#F0C97A" opacity="0.26"/><rect x="224.32" y="518.61" width="55.44" height="21.94" fill="#F0C97A" opacity="0.27"/><rect x="300.38" y="362.99" width="55.44" height="21.94" fill="#F0C97A" opacity="0.39"/><rect x="300.38" y="394.11" width="55.44" height="21.94" fill="#F0C97A" opacity="0.32"/><rect x="300.38" y="456.36" width="55.44" height="21.94" fill="#F0C97A" opacity="0.17"/><rect x="300.38" y="487.49" width="55.44" height="21.94" fill="#F0C97A" opacity="0.38"/><rect x="441.93" y="359.66" width="137.07" height="34.28" fill="#F0C97A" opacity="0.29"/><rect x="441.93" y="414.87" width="137.07" height="34.28" fill="#F0C97A" opacity="0.46"/><rect x="441.93" y="470.08" width="137.07" height="34.28" fill="#F0C97A" opacity="0.38"/><rect x="441.93" y="525.29" width="137.07" height="34.28" fill="#F0C97A" opacity="0.36"/><rect x="643.58" y="414.87" width="137.07" height="34.28" fill="#F0C97A" opacity="0.17"/><rect x="643.58" y="525.29" width="137.07" height="34.28" fill="#F0C97A" opacity="0.22"/><rect x="1017.08" y="347.62" width="105.32" height="45.54" fill="#F0C97A" opacity="0.46"/><rect x="1017.08" y="424.81" width="105.32" height="45.54" fill="#F0C97A" opacity="0.17"/><rect x="1017.08" y="502" width="105.32" height="45.54" fill="#F0C97A" opacity="0.18"/><rect x="1169.88" y="347.62" width="105.32" height="45.54" fill="#F0C97A" opacity="0.34"/><rect x="1229.49" y="498.9" width="95.8" height="43.36" fill="#F0C97A" opacity="0.25"/><rect x="1367.64" y="280.05" width="95.8" height="43.36" fill="#F0C97A" opacity="0.44"/><rect x="1367.64" y="425.95" width="95.8" height="43.36" fill="#F0C97A" opacity="0.26"/><rect x="1505.8" y="280.05" width="95.8" height="43.36" fill="#F0C97A" opacity="0.42"/><rect x="1505.8" y="425.95" width="95.8" height="43.36" fill="#F0C97A" opacity="0.31"/><rect x="1505.8" y="498.9" width="95.8" height="43.36" fill="#F0C97A" opacity="0.21"/></g><rect x="-0.85" y="365.99" width="49.44" height="15.94" fill="url(#winGlow)" opacity="0.94"/><rect x="-0.85" y="397.11" width="49.44" height="15.94" fill="url(#winGlow)" opacity="0.71"/><rect x="-0.85" y="490.49" width="49.44" height="15.94" fill="url(#winGlow)" opacity="0.61"/><rect x="-0.85" y="552.74" width="49.44" height="15.94" fill="url(#winGlow)" opacity="0.78"/><rect x="75.21" y="397.11" width="49.44" height="15.94" fill="url(#winGlow)" opacity="0.94"/><rect x="75.21" y="552.74" width="49.44" height="15.94" fill="url(#winGlow)" opacity="0.69"/><rect x="151.26" y="365.99" width="49.44" height="15.94" fill="url(#winGlow)" opacity="0.67"/><rect x="151.26" y="397.11" width="49.44" height="15.94" fill="url(#winGlow)" opacity="0.76"/><rect x="151.26" y="490.49" width="49.44" height="15.94" fill="url(#winGlow)" opacity="0.81"/><rect x="151.26" y="521.61" width="49.44" height="15.94" fill="url(#winGlow)" opacity="0.73"/><rect x="227.32" y="428.24" width="49.44" height="15.94" fill="url(#winGlow)" opacity="0.94"/><rect x="227.32" y="459.36" width="49.44" height="15.94" fill="url(#winGlow)" opacity="0.71"/><rect x="227.32" y="521.61" width="49.44" height="15.94" fill="url(#winGlow)" opacity="0.72"/><rect x="303.38" y="365.99" width="49.44" height="15.94" fill="url(#winGlow)" opacity="0.84"/><rect x="303.38" y="397.11" width="49.44" height="15.94" fill="url(#winGlow)" opacity="0.77"/><rect x="303.38" y="459.36" width="49.44" height="15.94" fill="url(#winGlow)" opacity="0.62"/><rect x="303.38" y="490.49" width="49.44" height="15.94" fill="url(#winGlow)" opacity="0.83"/><rect x="444.93" y="362.66" width="131.07" height="28.28" fill="url(#winGlow)" opacity="0.74"/><rect x="444.93" y="417.87" width="131.07" height="28.28" fill="url(#winGlow)" opacity="0.91"/><rect x="444.93" y="473.08" width="131.07" height="28.28" fill="url(#winGlow)" opacity="0.83"/><rect x="444.93" y="528.29" width="131.07" height="28.28" fill="url(#winGlow)" opacity="0.81"/><rect x="646.58" y="417.87" width="131.07" height="28.28" fill="url(#winGlow)" opacity="0.62"/><rect x="646.58" y="528.29" width="131.07" height="28.28" fill="url(#winGlow)" opacity="0.67"/><rect x="1020.08" y="350.62" width="99.32" height="39.54" fill="url(#winGlow)" opacity="0.91"/><rect x="1020.08" y="427.81" width="99.32" height="39.54" fill="url(#winGlow)" opacity="0.62"/><rect x="1020.08" y="505" width="99.32" height="39.54" fill="url(#winGlow)" opacity="0.63"/><rect x="1172.88" y="350.62" width="99.32" height="39.54" fill="url(#winGlow)" opacity="0.79"/><rect x="1232.49" y="501.9" width="89.8" height="37.36" fill="url(#winGlow)" opacity="0.7"/><rect x="1370.64" y="283.05" width="89.8" height="37.36" fill="url(#winGlow)" opacity="0.89"/><rect x="1370.64" y="428.95" width="89.8" height="37.36" fill="url(#winGlow)" opacity="0.71"/><rect x="1508.8" y="283.05" width="89.8" height="37.36" fill="url(#winGlow)" opacity="0.87"/><rect x="1508.8" y="428.95" width="89.8" height="37.36" fill="url(#winGlow)" opacity="0.76"/><rect x="1508.8" y="501.9" width="89.8" height="37.36" fill="url(#winGlow)" opacity="0.66"/><rect x="0" y="610.43" width="1600" height="389.57" fill="url(#water)"/><g filter="url(#hazeBlur)"><ellipse cx="1215.21" cy="641.6" rx="90" ry="12" fill="#F0C36B" opacity="0.16"/><ellipse cx="1215.21" cy="696.14" rx="82" ry="18.85" fill="#F0C36B" opacity="0.14"/><ellipse cx="1215.21" cy="750.68" rx="74" ry="25.71" fill="#F0C36B" opacity="0.12"/><ellipse cx="1215.21" cy="805.22" rx="66" ry="32.57" fill="#F0C36B" opacity="0.1"/><ellipse cx="1215.21" cy="859.76" rx="58" ry="39.42" fill="#F0C36B" opacity="0.08"/></g><rect x="895.33" y="829.42" width="77.98" height="2.12" rx="1" fill="#F0C36B" opacity="0.12"/><rect x="1398.05" y="889.22" width="147.04" height="2.43" rx="1" fill="#F0C36B" opacity="0.12"/><rect x="686.27" y="744.63" width="194.23" height="1.69" rx="1" fill="#F0C36B" opacity="0.13"/><rect x="248.74" y="732.7" width="135.65" height="1.63" rx="1" fill="#D9D9D9" opacity="0.09"/><rect x="570.25" y="667.04" width="114.82" height="1.29" rx="1" fill="#D9D9D9" opacity="0.08"/><rect x="310.22" y="701.23" width="52.42" height="1.47" rx="1" fill="#D9D9D9" opacity="0.14"/><rect x="75.53" y="716.58" width="75.02" height="1.54" rx="1" fill="#D9D9D9" opacity="0.16"/><rect x="916.27" y="939.64" width="209.84" height="2.69" rx="1" fill="#D9D9D9" opacity="0.13"/><rect x="6.83" y="643.66" width="145.88" height="1.17" rx="1" fill="#F0C36B" opacity="0.08"/><rect x="1370.91" y="959.22" width="136.59" height="2.79" rx="1" fill="#D9D9D9" opacity="0.17"/><rect x="1209.02" y="610.82" width="95.67" height="1" rx="1" fill="#F0C36B" opacity="0.13"/><rect x="1232.34" y="659.83" width="191.49" height="1.25" rx="1" fill="#F0C36B" opacity="0.07"/><rect x="323.97" y="756.92" width="44.63" height="1.75" rx="1" fill="#F0C36B" opacity="0.06"/><rect x="841.38" y="611.82" width="108.51" height="1.01" rx="1" fill="#D9D9D9" opacity="0.07"/><rect x="870.99" y="922.7" width="76.23" height="2.6" rx="1" fill="#D9D9D9" opacity="0.07"/><rect x="1147.63" y="648.01" width="55.18" height="1.19" rx="1" fill="#F0C36B" opacity="0.06"/><rect x="1366.65" y="959.24" width="113.99" height="2.79" rx="1" fill="#F0C36B" opacity="0.07"/><rect x="142.29" y="793.22" width="187.46" height="1.94" rx="1" fill="#D9D9D9" opacity="0.11"/><rect x="1020.59" y="670.3" width="115.89" height="1.31" rx="1" fill="#F0C36B" opacity="0.07"/><rect x="1378.2" y="775.41" width="193.01" height="1.85" rx="1" fill="#D9D9D9" opacity="0.14"/><rect x="416.08" y="922.81" width="201.21" height="2.6" rx="1" fill="#D9D9D9" opacity="0.14"/><rect x="455.01" y="942.22" width="166.65" height="2.7" rx="1" fill="#D9D9D9" opacity="0.13"/><path d="M 249.7 327.39 C 287.27 471.91 287.27 587.53 264.73 616.43 L 234.67 616.43 C 212.12 587.53 212.12 471.91 249.7 327.39 Z" fill="#04091A" opacity="0.92"/><path d="M 1487 335.54 C 1523.52 475.98 1523.52 588.34 1501.61 616.43 L 1472.39 616.43 C 1450.48 588.34 1450.48 475.98 1487 335.54 Z" fill="#04091A" opacity="0.92"/><rect width="1600" height="1000" fill="url(#vignette)"/><rect x="0" y="608.43" width="1600" height="4" fill="#F0C36B" opacity="0.12"/></svg>