<svg xmlns="http://www.w3.org/2000/svg" width="1600" height="1000" viewBox="0 0 1600 1000" preserveAspectRatio="xMidYMid slice"><defs>
    <linearGradient id="sky" x1="0" y1="0" x2="0" y2="1">
      <stop offset="0" stop-color="#050A1C"/>
      <stop offset="0.32" stop-color="#0C1730"/>
      <stop offset="0.62" stop-color="#20304F"/>
      <stop offset="0.85" stop-color="#3A4A72"/>
      <stop offset="1" stop-color="#C77E52" stop-opacity="0.55"/>
    </linearGradient>
    <radialGradient id="sunGlow" cx="0.35" cy="0.48" r="0.6">
      <stop offset="0" stop-color="#EAC978" stop-opacity="0.95"/>
      <stop offset="0.18" stop-color="#EAC978" stop-opacity="0.5"/>
      <stop offset="0.45" stop-color="#C77E52" stop-opacity="0.18"/>
      <stop offset="1" stop-color="#C77E52" stop-opacity="0"/>
    </radialGradient>
    <radialGradient id="sunCore" cx="0.5" cy="0.5" r="0.5">
      <stop offset="0" stop-color="#FFFDF5"/>
      <stop offset="0.35" stop-color="#EAC978"/>
      <stop offset="1" stop-color="#C77E52" stop-opacity="0"/>
    </radialGradient>
    <linearGradient id="haze" x1="0" y1="0" x2="0" y2="1">
      <stop offset="0" stop-color="#C77E52" stop-opacity="0"/>
      <stop offset="1" stop-color="#EAC978" stop-opacity="0.35"/>
    </linearGradient>
    <linearGradient id="water" x1="0" y1="0" x2="0" y2="1">
      <stop offset="0" stop-color="#3A4A72" stop-opacity="0.85"/>
      <stop offset="0.4" stop-color="#20304F" stop-opacity="0.6"/>
      <stop offset="1" stop-color="#04091A"/>
    </linearGradient>
    <radialGradient id="vignette" cx="0.5" cy="0.42" r="0.75">
      <stop offset="0" stop-color="#000000" stop-opacity="0"/>
      <stop offset="0.7" stop-color="#000000" stop-opacity="0"/>
      <stop offset="1" stop-color="#04091A" stop-opacity="0.55"/>
    </radialGradient>
    <radialGradient id="winGlow" cx="0.5" cy="0.5" r="0.5">
      <stop offset="0" stop-color="#FFF0CE"/>
      <stop offset="0.5" stop-color="#F0C97A"/>
      <stop offset="1" stop-color="#8A5A1E"/>
    </radialGradient>
    <filter id="soft" x="-20%" y="-20%" width="140%" height="140%">
      <feGaussianBlur stdDeviation="6"/>
    </filter>
    <filter id="hazeBlur" x="-10%" y="-10%" width="120%" height="120%">
      <feGaussianBlur stdDeviation="3"/>
    </filter>
  </defs><rect width="1600" height="1000" fill="url(#sky)"/><rect width="1600" height="652.83" fill="url(#sunGlow)"/><g opacity="0.10"><polygon points="563.07,478.73 149.07,0 209.07,0" fill="#EAC978"/><polygon points="563.07,478.73 277.07,0 337.07,0" fill="#EAC978"/><polygon points="563.07,478.73 405.07,0 465.07,0" fill="#EAC978"/><polygon points="563.07,478.73 533.07,0 593.07,0" fill="#EAC978"/><polygon points="563.07,478.73 661.07,0 721.07,0" fill="#EAC978"/><polygon points="563.07,478.73 789.07,0 849.07,0" fill="#EAC978"/><polygon points="563.07,478.73 917.07,0 977.07,0" fill="#EAC978"/></g><g filter="url(#soft)" opacity="0.5"><ellipse cx="1379.74" cy="238.37" rx="301.72" ry="54.31" fill="#20304F" opacity="0.5"/><ellipse cx="1510.6" cy="322.85" rx="199.31" ry="35.88" fill="#20304F" opacity="0.5"/><ellipse cx="1472.88" cy="168.66" rx="183.35" ry="33" fill="#20304F" opacity="0.5"/><ellipse cx="1320.89" cy="259.73" rx="289.54" ry="52.12" fill="#C77E52" opacity="0.5"/><ellipse cx="970.67" cy="388.8" rx="223.36" ry="40.2" fill="#20304F" opacity="0.5"/></g><circle cx="563.07" cy="478.73" r="130" fill="url(#sunCore)"/><g opacity="0.5"><rect x="-20" y="614.44" width="111.49" height="42.39" fill="hsl(232.38418238516897, 19.65032844990492%, 19.299234928563237%)"/><rect x="25.91" y="627.43" width="3" height="3" fill="#EAC978" opacity="0.51"/><rect x="107.63" y="527.65" width="86.72" height="129.18" fill="hsl(225.0069327922538, 22.147036294452846%, 15.797476533800364%)"/><rect x="116.21" y="615.14" width="3" height="3" fill="#EAC978" opacity="0.54"/><rect x="199.58" y="601.97" width="119.5" height="54.85" fill="hsl(233.72453266661614, 24.44389763008803%, 17.641492679715157%)"/><rect x="299.11" y="611.69" width="3" height="3" fill="#EAC978" opacity="0.32"/><rect x="220.12" y="626.99" width="3" height="3" fill="#EAC978" opacity="0.63"/><rect x="336.17" y="605.15" width="68.51" height="51.68" fill="hsl(227.84624298848212, 19.761582023464143%, 18.267478266730905%)"/><rect x="372.78" y="630.13" width="3" height="3" fill="#EAC978" opacity="0.68"/><rect x="368.09" y="626.46" width="3" height="3" fill="#EAC978" opacity="0.4"/><rect x="422.66" y="607.62" width="73.38" height="49.21" fill="hsl(222.85057269595563, 18.427583975251764%, 17.02179236896336%)"/><rect x="512.93" y="578.06" width="88.32" height="78.77" fill="hsl(223.02053385134786, 25.792296840343624%, 12.222698686644435%)"/><rect x="607.51" y="558.6" width="107.78" height="98.23" fill="hsl(233.095136792399, 23.41643647942692%, 16.143691509962082%)"/><rect x="732.74" y="549.97" width="76.1" height="106.86" fill="hsl(229.69698093272746, 20.980252373963594%, 14.689291154965758%)"/><rect x="776.78" y="600.75" width="3" height="3" fill="#EAC978" opacity="0.51"/><rect x="821.42" y="502.42" width="78.69" height="154.41" fill="hsl(224.24197387788445, 23.132158452179283%, 19.467632932588458%)"/><rect x="911.05" y="502.42" width="80.18" height="154.41" fill="hsl(228.99163277819753, 24.831317094620317%, 16.52851619012654%)"/><rect x="923.94" y="547.45" width="3" height="3" fill="#EAC978" opacity="0.65"/><rect x="999.2" y="570.5" width="109.94" height="86.33" fill="hsl(229.37128354981542, 26.83870344609022%, 12.67139183357358%)"/><rect x="1010.62" y="608.88" width="3" height="3" fill="#EAC978" opacity="0.4"/><rect x="1124.9" y="519.67" width="50.5" height="137.16" fill="hsl(225.341572528705, 21.667210242711008%, 18.93934832699597%)"/><rect x="1184.98" y="546.94" width="53.99" height="109.88" fill="hsl(232.1901340316981, 19.679448653012514%, 19.209380328655243%)"/><rect x="1224.87" y="633.31" width="3" height="3" fill="#EAC978" opacity="0.55"/><rect x="1256.39" y="593.84" width="104.23" height="62.98" fill="hsl(233.42417188547552, 24.47986110066995%, 14.380895171314478%)"/><rect x="1374.68" y="575.47" width="115.61" height="81.36" fill="hsl(228.90676371753216, 25.80377315590158%, 17.321548273786902%)"/><rect x="1419.85" y="589.43" width="3" height="3" fill="#EAC978" opacity="0.61"/><rect x="1456.39" y="589.35" width="3" height="3" fill="#EAC978" opacity="0.41"/><rect x="1388.58" y="597.48" width="3" height="3" fill="#EAC978" opacity="0.39"/><rect x="1506.03" y="551.62" width="75.4" height="105.21" fill="hsl(228.40995473228395, 21.858684520237148%, 18.92865375801921%)"/><rect x="1582.08" y="520.04" width="54.78" height="136.79" fill="hsl(225.13430386874825, 23.048927306197584%, 12.010527757927775%)"/><rect x="0" y="592.83" width="1600" height="64" fill="url(#haze)" opacity="0.6"/></g><linearGradient id="f10210" x1="0" y1="0" x2="1" y2="1">
      <stop offset="0" stop-color="#333F60"/>
      <stop offset="1" stop-color="#1A2138"/>
    </linearGradient><rect x="-10.27" y="224.71" width="486.47" height="434.12" fill="url(#f10210)"/><rect x="-10.27" y="224.71" width="3" height="428.12" fill="#C77E52" opacity="0.5"/><rect x="-10.27" y="390.19" width="486.47" height="12.84" fill="#04091A" opacity="0.6"/><linearGradient id="f10211" x1="1" y1="0" x2="0" y2="1">
      <stop offset="0" stop-color="#26314F"/>
      <stop offset="1" stop-color="#141B30"/>
    </linearGradient><rect x="366.55" y="201.72" width="475.09" height="457.11" fill="url(#f10211)"/><rect x="838.65" y="201.72" width="3" height="451.11" fill="#C77E52" opacity="0.5"/><rect x="366.55" y="417.32" width="475.09" height="13.53" fill="#04091A" opacity="0.6"/><rect x="366.55" y="203.72" width="475.09" height="2" fill="#D4AF37" opacity="0.55"/><linearGradient id="f10212" x1="1" y1="0" x2="0" y2="1">
      <stop offset="0" stop-color="#26314F"/>
      <stop offset="1" stop-color="#141B30"/>
    </linearGradient><rect x="742.14" y="176.01" width="605.51" height="482.82" fill="url(#f10212)"/><rect x="1344.65" y="176.01" width="3" height="476.82" fill="#C77E52" opacity="0.5"/><rect x="742.14" y="178.01" width="605.51" height="2" fill="#D4AF37" opacity="0.55"/><linearGradient id="f10213" x1="1" y1="0" x2="0" y2="1">
      <stop offset="0" stop-color="#2E3A58"/>
      <stop offset="1" stop-color="#171E33"/>
    </linearGradient><rect x="1172.31" y="315.43" width="370.65" height="343.39" fill="url(#f10213)"/><rect x="1539.96" y="315.43" width="3" height="337.39" fill="#C77E52" opacity="0.5"/><rect x="1172.31" y="432.32" width="370.65" height="10.12" fill="#04091A" opacity="0.6"/><rect x="1172.31" y="317.43" width="370.65" height="2" fill="#D4AF37" opacity="0.55"/><g filter="url(#soft)" opacity="0.5"><rect x="35.37" y="255.96" width="132.48" height="41.96" fill="#F0C97A" opacity="0.19"/><rect x="35.37" y="326.17" width="132.48" height="41.96" fill="#F0C97A" opacity="0.42"/><rect x="35.37" y="396.38" width="132.48" height="41.96" fill="#F0C97A" opacity="0.36"/><rect x="35.37" y="466.59" width="132.48" height="41.96" fill="#F0C97A" opacity="0.26"/><rect x="35.37" y="536.81" width="132.48" height="41.96" fill="#F0C97A" opacity="0.38"/><rect x="229.96" y="396.38" width="132.48" height="41.96" fill="#F0C97A" opacity="0.36"/><rect x="229.96" y="536.81" width="132.48" height="41.96" fill="#F0C97A" opacity="0.2"/><rect x="411.06" y="446.18" width="67.76" height="33.07" fill="#F0C97A" opacity="0.2"/><rect x="411.06" y="499.03" width="67.76" height="33.07" fill="#F0C97A" opacity="0.18"/><rect x="411.06" y="551.87" width="67.76" height="33.07" fill="#F0C97A" opacity="0.35"/><rect x="506.08" y="234.81" width="67.76" height="33.07" fill="#F0C97A" opacity="0.47"/><rect x="506.08" y="287.65" width="67.76" height="33.07" fill="#F0C97A" opacity="0.38"/><rect x="506.08" y="340.5" width="67.76" height="33.07" fill="#F0C97A" opacity="0.48"/><rect x="506.08" y="393.34" width="67.76" height="33.07" fill="#F0C97A" opacity="0.38"/><rect x="506.08" y="551.87" width="67.76" height="33.07" fill="#F0C97A" opacity="0.23"/><rect x="601.1" y="234.81" width="67.76" height="33.07" fill="#F0C97A" opacity="0.2"/><rect x="601.1" y="287.65" width="67.76" height="33.07" fill="#F0C97A" opacity="0.25"/><rect x="601.1" y="499.03" width="67.76" height="33.07" fill="#F0C97A" opacity="0.5"/><rect x="696.12" y="234.81" width="67.76" height="33.07" fill="#F0C97A" opacity="0.31"/><rect x="696.12" y="287.65" width="67.76" height="33.07" fill="#F0C97A" opacity="0.41"/><rect x="696.12" y="340.5" width="67.76" height="33.07" fill="#F0C97A" opacity="0.16"/><rect x="696.12" y="446.18" width="67.76" height="33.07" fill="#F0C97A" opacity="0.42"/><rect x="696.12" y="499.03" width="67.76" height="33.07" fill="#F0C97A" opacity="0.33"/><rect x="799.69" y="308.9" width="163.43" height="56.07" fill="#F0C97A" opacity="0.16"/><rect x="799.69" y="406.65" width="163.43" height="56.07" fill="#F0C97A" opacity="0.4"/><rect x="1041.9" y="211.15" width="163.43" height="56.07" fill="#F0C97A" opacity="0.42"/><rect x="1041.9" y="308.9" width="163.43" height="56.07" fill="#F0C97A" opacity="0.23"/><rect x="1041.9" y="406.65" width="163.43" height="56.07" fill="#F0C97A" opacity="0.17"/><rect x="1041.9" y="504.4" width="163.43" height="56.07" fill="#F0C97A" opacity="0.29"/><rect x="1206.38" y="339.43" width="44.55" height="34.34" fill="#F0C97A" opacity="0.21"/><rect x="1206.38" y="394.76" width="44.55" height="34.34" fill="#F0C97A" opacity="0.47"/><rect x="1206.38" y="450.09" width="44.55" height="34.34" fill="#F0C97A" opacity="0.47"/><rect x="1265.68" y="339.43" width="44.55" height="34.34" fill="#F0C97A" opacity="0.25"/><rect x="1265.68" y="394.76" width="44.55" height="34.34" fill="#F0C97A" opacity="0.35"/><rect x="1265.68" y="450.09" width="44.55" height="34.34" fill="#F0C97A" opacity="0.47"/><rect x="1265.68" y="560.76" width="44.55" height="34.34" fill="#F0C97A" opacity="0.28"/><rect x="1324.98" y="450.09" width="44.55" height="34.34" fill="#F0C97A" opacity="0.39"/><rect x="1384.29" y="394.76" width="44.55" height="34.34" fill="#F0C97A" opacity="0.27"/><rect x="1384.29" y="450.09" width="44.55" height="34.34" fill="#F0C97A" opacity="0.2"/><rect x="1443.59" y="394.76" width="44.55" height="34.34" fill="#F0C97A" opacity="0.21"/></g><rect x="38.37" y="258.96" width="126.48" height="35.96" fill="url(#winGlow)" opacity="0.64"/><rect x="38.37" y="329.17" width="126.48" height="35.96" fill="url(#winGlow)" opacity="0.87"/><rect x="38.37" y="399.38" width="126.48" height="35.96" fill="url(#winGlow)" opacity="0.81"/><rect x="38.37" y="469.59" width="126.48" height="35.96" fill="url(#winGlow)" opacity="0.71"/><rect x="38.37" y="539.81" width="126.48" height="35.96" fill="url(#winGlow)" opacity="0.83"/><rect x="232.96" y="399.38" width="126.48" height="35.96" fill="url(#winGlow)" opacity="0.81"/><rect x="232.96" y="539.81" width="126.48" height="35.96" fill="url(#winGlow)" opacity="0.65"/><rect x="414.06" y="449.18" width="61.76" height="27.07" fill="url(#winGlow)" opacity="0.65"/><rect x="414.06" y="502.03" width="61.76" height="27.07" fill="url(#winGlow)" opacity="0.63"/><rect x="414.06" y="554.87" width="61.76" height="27.07" fill="url(#winGlow)" opacity="0.8"/><rect x="509.08" y="237.81" width="61.76" height="27.07" fill="url(#winGlow)" opacity="0.92"/><rect x="509.08" y="290.65" width="61.76" height="27.07" fill="url(#winGlow)" opacity="0.83"/><rect x="509.08" y="343.5" width="61.76" height="27.07" fill="url(#winGlow)" opacity="0.93"/><rect x="509.08" y="396.34" width="61.76" height="27.07" fill="url(#winGlow)" opacity="0.83"/><rect x="509.08" y="554.87" width="61.76" height="27.07" fill="url(#winGlow)" opacity="0.68"/><rect x="604.1" y="237.81" width="61.76" height="27.07" fill="url(#winGlow)" opacity="0.65"/><rect x="604.1" y="290.65" width="61.76" height="27.07" fill="url(#winGlow)" opacity="0.7"/><rect x="604.1" y="502.03" width="61.76" height="27.07" fill="url(#winGlow)" opacity="0.95"/><rect x="699.12" y="237.81" width="61.76" height="27.07" fill="url(#winGlow)" opacity="0.76"/><rect x="699.12" y="290.65" width="61.76" height="27.07" fill="url(#winGlow)" opacity="0.86"/><rect x="699.12" y="343.5" width="61.76" height="27.07" fill="url(#winGlow)" opacity="0.61"/><rect x="699.12" y="449.18" width="61.76" height="27.07" fill="url(#winGlow)" opacity="0.87"/><rect x="699.12" y="502.03" width="61.76" height="27.07" fill="url(#winGlow)" opacity="0.78"/><rect x="802.69" y="311.9" width="157.43" height="50.07" fill="url(#winGlow)" opacity="0.61"/><rect x="802.69" y="409.65" width="157.43" height="50.07" fill="url(#winGlow)" opacity="0.85"/><rect x="1044.9" y="214.15" width="157.43" height="50.07" fill="url(#winGlow)" opacity="0.87"/><rect x="1044.9" y="311.9" width="157.43" height="50.07" fill="url(#winGlow)" opacity="0.68"/><rect x="1044.9" y="409.65" width="157.43" height="50.07" fill="url(#winGlow)" opacity="0.62"/><rect x="1044.9" y="507.4" width="157.43" height="50.07" fill="url(#winGlow)" opacity="0.74"/><rect x="1209.38" y="342.43" width="38.55" height="28.34" fill="url(#winGlow)" opacity="0.66"/><rect x="1209.38" y="397.76" width="38.55" height="28.34" fill="url(#winGlow)" opacity="0.92"/><rect x="1209.38" y="453.09" width="38.55" height="28.34" fill="url(#winGlow)" opacity="0.92"/><rect x="1268.68" y="342.43" width="38.55" height="28.34" fill="url(#winGlow)" opacity="0.7"/><rect x="1268.68" y="397.76" width="38.55" height="28.34" fill="url(#winGlow)" opacity="0.8"/><rect x="1268.68" y="453.09" width="38.55" height="28.34" fill="url(#winGlow)" opacity="0.92"/><rect x="1268.68" y="563.76" width="38.55" height="28.34" fill="url(#winGlow)" opacity="0.73"/><rect x="1327.98" y="453.09" width="38.55" height="28.34" fill="url(#winGlow)" opacity="0.84"/><rect x="1387.29" y="397.76" width="38.55" height="28.34" fill="url(#winGlow)" opacity="0.72"/><rect x="1387.29" y="453.09" width="38.55" height="28.34" fill="url(#winGlow)" opacity="0.65"/><rect x="1446.59" y="397.76" width="38.55" height="28.34" fill="url(#winGlow)" opacity="0.66"/><rect x="0" y="652.83" width="1600" height="347.17" fill="url(#water)"/><g filter="url(#hazeBlur)"><ellipse cx="563.07" cy="680.6" rx="90" ry="10.69" fill="#EAC978" opacity="0.16"/><ellipse cx="563.07" cy="729.21" rx="82" ry="16.8" fill="#EAC978" opacity="0.14"/><ellipse cx="563.07" cy="777.81" rx="74" ry="22.91" fill="#EAC978" opacity="0.12"/><ellipse cx="563.07" cy="826.41" rx="66" ry="29.02" fill="#EAC978" opacity="0.1"/><ellipse cx="563.07" cy="875.02" rx="58" ry="35.13" fill="#EAC978" opacity="0.08"/></g><rect x="647.42" y="701.07" width="85.21" height="1.28" rx="1" fill="#EAC978" opacity="0.15"/><rect x="162" y="764.77" width="108.08" height="1.64" rx="1" fill="#EAC978" opacity="0.13"/><rect x="1046.91" y="776.6" width="127.51" height="1.71" rx="1" fill="#EAC978" opacity="0.11"/><rect x="368.59" y="915.77" width="166.34" height="2.51" rx="1" fill="#EAC978" opacity="0.12"/><rect x="171.08" y="941.05" width="202.3" height="2.66" rx="1" fill="#D9D9D9" opacity="0.19"/><rect x="26.98" y="760.38" width="89.28" height="1.62" rx="1" fill="#D9D9D9" opacity="0.08"/><rect x="898.91" y="963.89" width="177.25" height="2.79" rx="1" fill="#D9D9D9" opacity="0.09"/><rect x="148.48" y="702.22" width="64.54" height="1.28" rx="1" fill="#D9D9D9" opacity="0.13"/><rect x="50.57" y="715.2" width="107.61" height="1.36" rx="1" fill="#EAC978" opacity="0.1"/><rect x="486.17" y="814.27" width="132.95" height="1.93" rx="1" fill="#D9D9D9" opacity="0.1"/><rect x="1434.89" y="679.29" width="65.89" height="1.15" rx="1" fill="#EAC978" opacity="0.13"/><rect x="1301.92" y="967.22" width="148.99" height="2.81" rx="1" fill="#D9D9D9" opacity="0.19"/><rect x="546.97" y="658.73" width="188.77" height="1.03" rx="1" fill="#EAC978" opacity="0.17"/><rect x="827.9" y="812.85" width="102.6" height="1.92" rx="1" fill="#D9D9D9" opacity="0.05"/><rect x="126.58" y="864.51" width="63.86" height="2.22" rx="1" fill="#EAC978" opacity="0.16"/><rect x="1454.37" y="918.81" width="121.41" height="2.53" rx="1" fill="#D9D9D9" opacity="0.07"/><rect x="797.86" y="756.91" width="39.74" height="1.6" rx="1" fill="#EAC978" opacity="0.17"/><rect x="473.32" y="883.26" width="171.63" height="2.33" rx="1" fill="#EAC978" opacity="0.13"/><rect x="569.27" y="700.59" width="181.31" height="1.28" rx="1" fill="#D9D9D9" opacity="0.06"/><rect x="1190.27" y="844.64" width="157.88" height="2.1" rx="1" fill="#D9D9D9" opacity="0.09"/><rect x="112" y="851.12" width="71.8" height="2.14" rx="1" fill="#EAC978" opacity="0.12"/><rect x="1552.17" y="876.49" width="75.43" height="2.29" rx="1" fill="#EAC978" opacity="0.09"/><path d="M 74.1 460.19 C 99.92 559.51 99.92 638.96 84.43 658.83 L 63.77 658.83 C 48.28 638.96 48.28 559.51 74.1 460.19 Z" fill="#04091A" opacity="0.92"/><path d="M 1447.16 475.41 C 1471.01 567.12 1471.01 640.49 1456.7 658.83 L 1437.62 658.83 C 1423.32 640.49 1423.32 567.12 1447.16 475.41 Z" fill="#04091A" opacity="0.92"/><path d="M 1541.56 365.16 C 1579.73 512 1579.73 629.46 1556.83 658.83 L 1526.28 658.83 C 1503.38 629.46 1503.38 512 1541.56 365.16 Z" fill="#04091A" opacity="0.92"/><rect width="1600" height="1000" fill="url(#vignette)"/><rect x="0" y="650.83" width="1600" height="4" fill="#EAC978" opacity="0.12"/></svg>