<svg xmlns="http://www.w3.org/2000/svg" width="1600" height="1000" viewBox="0 0 1600 1000"><defs>
  <linearGradient id="room" x1="0" y1="0" x2="0" y2="1">
    <stop offset="0" stop-color="#111827"/><stop offset="1" stop-color="#060D22"/>
  </linearGradient>
  <linearGradient id="view" x1="0" y1="0" x2="0" y2="1">
    <stop offset="0" stop-color="#0A142F"/><stop offset="0.7" stop-color="#3D2E4F"/><stop offset="1" stop-color="#060D22"/>
  </linearGradient>
  <linearGradient id="floor" x1="0" y1="0" x2="1" y2="0">
    <stop offset="0" stop-color="#1A2238"/><stop offset="0.5" stop-color="#2A3049"/><stop offset="1" stop-color="#1A2238"/>
  </linearGradient>
  </defs><rect width="1600" height="1000" fill="url(#room)"/><rect x="192" y="100" width="1216" height="620" fill="url(#view)"/><rect x="192" y="446" width="100" height="274" fill="#111827" opacity="0.8"/><rect x="301" y="564" width="43" height="156" fill="#111827" opacity="0.8"/><rect x="347" y="600" width="144" height="120" fill="#111827" opacity="0.8"/><rect x="504" y="496" width="45" height="224" fill="#111827" opacity="0.8"/><rect x="560" y="651" width="78" height="69" fill="#111827" opacity="0.8"/><rect x="657" y="670" width="107" height="50" fill="#111827" opacity="0.8"/><rect x="776" y="485" width="84" height="235" fill="#111827" opacity="0.8"/><rect x="861" y="574" width="79" height="146" fill="#111827" opacity="0.8"/><rect x="960" y="569" width="128" height="151" fill="#111827" opacity="0.8"/><rect x="1096" y="483" width="78" height="237" fill="#111827" opacity="0.8"/><rect x="1188" y="675" width="75" height="45" fill="#111827" opacity="0.8"/><rect x="1288" y="623" width="141" height="97" fill="#111827" opacity="0.8"/><circle cx="606" cy="317" r="56" fill="#E5C76B" opacity="0.9"/><rect x="395" y="100" width="6" height="620" fill="#060D22"/><rect x="597" y="100" width="6" height="620" fill="#060D22"/><rect x="800" y="100" width="6" height="620" fill="#060D22"/><rect x="1003" y="100" width="6" height="620" fill="#060D22"/><rect x="1205" y="100" width="6" height="620" fill="#060D22"/><rect x="192" y="100" width="1216" height="620" fill="none" stroke="#060D22" stroke-width="14"/><rect x="0" y="720" width="1600" height="280" fill="url(#floor)"/><polygon points="192,1000 1408,1000 1189.12,720 410.88,720" fill="#E5C76B" opacity="0.08"/><rect x="320" y="780" width="448.00000000000006" height="50" rx="10" fill="#060D22"/><rect x="352" y="700" width="384" height="90" rx="14" fill="#0D1530"/><circle cx="1152" cy="620" r="14" fill="#E5C76B"/><rect x="1147.2" y="620" width="4" height="200" fill="#060D22"/></svg>